/vscmnt/brussel_pixiu_data/_data_brussel/112/vsc11236/PredSimResults/SUBJ10opt3D/trackIG/worker_11.mot
version=1
nRows=4
nColumns=50
inDegrees=yes
endheader
                time	         pelvis_tilt	         pelvis_list	     pelvis_rotation	           pelvis_tx	           pelvis_ty	           pelvis_tz	       hip_flexion_r	     hip_adduction_r	      hip_rotation_r	        knee_angle_r	       ankle_angle_r	         mtp_angle_r	       hip_flexion_l	     hip_adduction_l	      hip_rotation_l	        knee_angle_l	       ankle_angle_l	         mtp_angle_l	    lumbar_extension	      lumbar_bending	     lumbar_rotation	 ercspn_r/activation	 intobl_r/activation	 extobl_r/activation	    abd_r/activation	    add_r/activation	hamstrings_r/activation	bifemsh_r/activation	glut_max_r/activation	iliopsoas_r/activation	rect_fem_r/activation	  vasti_r/activation	gastroc_r/activation	 soleus_r/activation	tib_ant_r/activation	 ercspn_l/activation	 intobl_l/activation	 extobl_l/activation	    abd_l/activation	    add_l/activation	hamstrings_l/activation	bifemsh_l/activation	glut_max_l/activation	iliopsoas_l/activation	rect_fem_l/activation	  vasti_l/activation	gastroc_l/activation	 soleus_l/activation	tib_ant_l/activation	
          0.93683748	         -6.57474887	         -2.12427958	          8.44851485	          1.49893997	          0.81247422	         -0.01044912	         34.99357203	         -0.97230608	         -7.07228368	         -8.52540533	          5.02098622	          0.32004967	        -17.05041790	         -1.99978076	          2.88277024	         -7.98706330	          2.61424295	         34.17041878	         -7.53392751	          1.92657745	         -8.10783087	          0.12679041	          0.13157835	          0.00999999	          0.00999999	          0.26698024	          0.17303453	          0.36120232	          0.07621625	          0.08429957	          0.00999999	          0.00999999	          0.02171238	          0.01336657	          0.38328504	          0.14656350	          0.00999999	          0.00999999	          0.03516485	          0.07980554	          0.04205475	          0.25683763	          0.01545363	          0.46560021	          0.00999999	          0.00999999	          0.28734922	          0.24067625	          0.02192846	
          0.94620585	         -6.56250846	         -2.14626246	          8.51782272	          1.51641197	          0.81101464	         -0.01036535	         34.73235596	         -0.70448584	         -6.38964848	        -10.16526235	          4.52446997	          0.29657144	        -16.83463058	         -2.11827373	          2.56762391	        -10.45098900	          1.59163192	         35.62038415	         -7.32954683	          2.31090709	         -8.33051318	          0.10966704	          0.11380836	          0.00999999	          0.02159428	          0.23092388	          0.14966578	          0.31242103	          0.17131406	          0.07291470	          0.00999999	          0.00999999	          0.01878007	          0.01156138	          0.48608776	          0.17474970	          0.00999999	          0.00999999	          0.03041575	          0.11913609	          0.04289659	          0.22215106	          0.01336657	          0.40271972	          0.00999999	          0.00999999	          0.24854198	          0.21768266	          0.01896696	
          0.95557423	         -6.54187969	         -2.17476299	          8.53706483	          1.53398318	          0.80975219	         -0.01018877	         34.33646624	         -0.44936853	         -5.77030335	        -11.58465624	          3.91701994	          0.28403823	        -16.38438260	         -2.23622725	          2.19432768	        -13.33760045	          0.52783422	         36.65587620	         -7.12283252	          2.69599789	         -8.50689089	          0.13275940	          0.09843825	          0.00999999	          0.10437565	          0.23092384	          0.12945304	          0.27022778	          0.20496768	          0.06306738	          0.00999999	          0.00999999	          0.01624377	          0.00999999	          0.60465806	          0.19687191	          0.00999999	          0.00999999	          0.02630802	          0.10304646	          0.03710330	          0.19214899	          0.01156138	          0.35955628	          0.00999999	          0.00999999	          0.21497576	          0.18828407	          0.01640543	
          0.96494260	         -6.51386532	         -2.18578529	          8.50492115	          1.55143517	          0.80885284	         -0.00990745	         33.93665330	         -0.20234095	         -5.28028438	        -12.97432977	          3.22840802	          0.26018069	        -15.64067765	         -2.33371229	          1.77254112	        -16.70961998	         -0.60682482	         37.11318255	         -6.94193839	          3.05511925	         -8.63432117	          0.14249983	          0.08514391	          0.00999999	          0.15031904	          0.27627201	          0.11197008	          0.23373283	          0.22537408	          0.05454997	          0.00999999	          0.01391469	          0.01405001	          0.00999999	          0.65316510	          0.23390098	          0.00999999	          0.00999999	          0.02275506	          0.08912977	          0.03209241	          0.16619878	          0.00999999	          0.31099729	          0.00999999	          0.00999999	          0.18594274	          0.16285583	          0.01418983	
